<svg xmlns="http://www.w3.org/2000/svg" viewBox="0 0 128 128">
  <circle cx="64" cy="64" r="64" fill="#fbf9f5"/>
  <path
    d="M114.0,64.0 L113.9,65.0 L113.6,66.1 L113.0,67.1 L112.3,68.1 L111.3,69.0 L110.1,69.8 L108.8,70.6 L107.2,71.3 L105.5,71.9 L103.6,72.4 L101.5,72.8 L99.3,73.1 L97.0,73.2 L94.5,73.2 L92.0,73.1 L89.3,72.8 L86.6,72.4 L83.8,71.8 L81.0,71.1 L78.1,70.3 L75.3,69.3 L72.4,68.2 L69.6,66.9 L66.8,65.5 L64.0,64.0 L61.3,62.4 L58.7,60.6 L56.2,58.8 L53.8,56.9 L51.5,54.9 L49.3,52.9 L47.3,50.8 L45.4,48.6 L43.7,46.5 L42.2,44.3 L40.8,42.2 L39.5,40.1 L38.5,38.0 L37.6,35.9 L36.9,33.9 L36.4,32.0 L36.1,30.2 L35.9,28.5 L35.9,27.0 L36.0,25.5 L36.4,24.2 L36.8,23.1 L37.4,22.1 L38.1,21.3 L39.0,20.7 L40.0,20.3 L41.0,20.0 L42.2,20.0 L43.4,20.2 L44.7,20.6 L46.0,21.1 L47.3,21.9 L48.7,22.9 L50.1,24.1 L51.5,25.5 L52.9,27.1 L54.2,28.9 L55.5,30.8 L56.7,33.0 L57.9,35.3 L59.0,37.7 L60.0,40.2 L60.9,42.9 L61.7,45.7 L62.4,48.6 L63.0,51.6 L63.4,54.6 L63.7,57.7 L63.9,60.9 L64.0,64.0 L63.9,67.1 L63.7,70.3 L63.4,73.4 L63.0,76.4 L62.4,79.4 L61.7,82.3 L60.9,85.1 L60.0,87.8 L59.0,90.3 L57.9,92.7 L56.7,95.0 L55.5,97.2 L54.2,99.1 L52.9,100.9 L51.5,102.5 L50.1,103.9 L48.7,105.1 L47.3,106.1 L46.0,106.9 L44.7,107.4 L43.4,107.8 L42.2,108.0 L41.0,108.0 L40.0,107.7 L39.0,107.3 L38.1,106.7 L37.4,105.9 L36.8,104.9 L36.4,103.8 L36.0,102.5 L35.9,101.0 L35.9,99.5 L36.1,97.8 L36.4,96.0 L36.9,94.1 L37.6,92.1 L38.5,90.0 L39.5,87.9 L40.8,85.8 L42.2,83.7 L43.7,81.5 L45.4,79.4 L47.3,77.2 L49.3,75.1 L51.5,73.1 L53.8,71.1 L56.2,69.2 L58.7,67.4 L61.3,65.6 L64.0,64.0 L66.8,62.5 L69.6,61.1 L72.4,59.8 L75.3,58.7 L78.1,57.7 L81.0,56.9 L83.8,56.2 L86.6,55.6 L89.3,55.2 L92.0,54.9 L94.5,54.8 L97.0,54.8 L99.3,54.9 L101.5,55.2 L103.6,55.6 L105.5,56.1 L107.2,56.7 L108.8,57.4 L110.1,58.2 L111.3,59.0 L112.3,59.9 L113.0,60.9 L113.6,61.9 L113.9,63.0 L114.0,64.0 Z"
    fill="none"
    stroke="#c0143c"
    stroke-width="8"
    stroke-linecap="round"
    stroke-linejoin="round"
  />
  <style>
    @media (prefers-color-scheme: dark) {
      circle { fill: #1b1c1a; }
    }
  </style>
</svg>
